<?xml version="1.0" standalone="no"?>
<!DOCTYPE svg PUBLIC "-//W3C//DTD SVG 20010904//EN"
 "http://www.w3.org/TR/2001/REC-SVG-20010904/DTD/svg10.dtd">
<svg version="1.0" xmlns="http://www.w3.org/2000/svg"
 width="700.000000pt" height="700.000000pt" viewBox="0 0 700.000000 700.000000"
 preserveAspectRatio="xMidYMid meet">
<metadata>
Created by potrace 1.11, written by Peter Selinger 2001-2013
</metadata>
<g transform="translate(0.000000,700.000000) scale(0.100000,-0.100000)"
fill="#000000" stroke="none">
<path d="M1273 6446 c9 -22 679 -1170 691 -1183 9 -10 149 125 616 592 l605
605 -959 0 c-808 0 -957 -2 -953 -14z"/>
<path d="M4420 5855 c468 -468 607 -602 616 -592 12 13 683 1162 691 1184 4
11 -176 13 -953 13 l-959 0 605 -605z"/>
<path d="M2880 5785 l-615 -615 1235 0 1235 0 -615 615 c-338 338 -617 615
-620 615 -3 0 -282 -277 -620 -615z"/>
<path d="M517 5769 l-495 -594 841 -3 c462 -1 842 0 844 2 4 4 -664 1154 -683
1175 -10 11 -101 -93 -507 -580z"/>
<path d="M5967 6339 c-56 -88 -677 -1162 -674 -1165 2 -2 382 -3 844 -2 l841
3 -480 575 c-263 316 -487 583 -497 594 -19 18 -19 18 -34 -5z"/>
<path d="M7 4898 c6 -7 707 -926 1558 -2043 851 -1117 1556 -2039 1566 -2049
14 -15 11 2 -15 85 -18 57 -311 985 -651 2062 l-618 1957 -925 0 c-738 0 -922
-3 -915 -12z"/>
<path d="M2123 4898 c2 -7 312 -988 688 -2180 376 -1192 686 -2168 689 -2168
3 0 313 976 689 2168 376 1192 686 2173 688 2180 4 9 -275 12 -1377 12 -1102
0 -1381 -3 -1377 -12z"/>
<path d="M4535 2953 c-340 -1077 -633 -2005 -651 -2062 -26 -83 -29 -100 -15
-85 10 10 715 932 1566 2049 851 1117 1552 2036 1558 2043 7 9 -177 12 -915
12 l-925 0 -618 -1957z"/>
</g>
</svg>
