<?xml version="1.0" encoding="utf-8"?>
<!-- Generator: Adobe Illustrator 24.1.0, SVG Export Plug-In . SVG Version: 6.00 Build 0)  -->
<svg version="1.1" id="Layer_1" xmlns:serif="http://www.serif.com/"
	 xmlns="http://www.w3.org/2000/svg" xmlns:xlink="http://www.w3.org/1999/xlink" x="0px" y="0px" viewBox="0 0 538 182"
	 style="enable-background:new 0 0 538 182;" xml:space="preserve">
<style type="text/css">
	.st0{enable-background:new    ;}
	.st1{fill:#FFFFFF;}
</style>
<g class="st0">
	<path class="st1" d="M37.7,120.3c0,0.7-0.5,1-1.5,1c-0.5,0-1,0-1.5-0.1c-4.6-0.2-8.6-0.3-11.8-0.3c-3.5,0-8.5,0.1-15.2,0.3
		c-2.2,0.1-3.9,0.1-4.9,0.1c-1.2,0-1.7-0.3-1.7-1c0-0.4,0.2-0.6,0.6-0.7c0.4-0.1,1.9-0.2,4.4-0.2c2.4-0.5,3.8-1.2,4.1-2.1
		c0.4-1,0.6-4,0.6-9.3V52.6c0-1.5,0-2.9,0-4.3c-0.1-1.4-0.1-2-0.1-2c0-1.9-1.9-2.9-5.8-2.9c-2.1,0-3.2-0.3-3.2-0.8
		c0-0.5,0.2-0.8,0.5-0.9c0.3-0.1,1.3-0.1,3-0.1c-0.8,0,0.6,0,4.1,0c3.5,0,6.6,0,9.1,0h5.9c1.2,0,3,0,5.2,0c2.3,0,3.9,0,4.8,0h1.2
		c1,0,1.5,0.3,1.5,0.9c0,0.4-0.2,0.7-0.5,0.8c-0.3,0.1-1.5,0.2-3.5,0.3c-2.4,0.2-3.8,0.7-4.4,1.5l-0.3,2.2v64.9
		c0,3.3,0.4,5.2,1.1,5.9c0.7,0.6,3.2,1,7.4,1.3C37.4,119.4,37.7,119.7,37.7,120.3z"/>
	<path class="st1" d="M71.4,120.4c0,0.6-1.5,0.9-4.4,0.9c-0.7,0-2.8-0.1-6.4-0.2c-1.8-0.1-3.6-0.1-5.4-0.1c-1.7,0-4.8,0.1-9.4,0.2
		l-3.4,0.1c-1.7,0.1-2.5-0.2-2.5-0.8s0.9-0.9,2.6-0.8c2.7,0.1,4.2-0.2,4.7-0.8c0.4-0.6,0.6-2.9,0.6-6.9V51.4c0-2.6-0.3-4.2-0.8-4.7
		c-0.5-0.5-2.1-0.7-4.8-0.7c-1.9,0-2.9-0.3-2.9-0.9c0-0.7,1-1,3-1.1c8.5-0.3,15.5-1.6,21-3.9c0,2.3,0,15.8,0,40.4v28.6
		c0,5.2,0.1,8.3,0.4,9.1c0.3,0.9,1.2,1.3,2.8,1.2h3.5C70.9,119.5,71.4,119.8,71.4,120.4z"/>
	<path class="st1" d="M122.6,72.1c0,0.5-0.2,0.9-0.5,1c-0.3,0.1-1.4,0.2-3.2,0.2c-2.1,0-3.3,0.1-3.7,0.3l-0.7,1.3l-1.4,4
		c-0.6,1.8-2,5.6-4.1,11.2c-0.2,0.5-1.8,5.2-5.1,14.1c-7.6,21.2-12.5,34.1-14.7,38.5c-2.8,5.5-6.3,8.3-10.6,8.3
		c-2.5,0-4.4-0.7-5.9-2.2c-1.5-1.5-2.2-3.4-2.2-5.8c0-3.8,2.1-5.6,6.2-5.6c1.4,0,2.5,0.5,3.3,1.4c0.4,0.4,1,1.5,2,3.2
		c0.5,0.8,1.3,1.2,2.2,1.2c1.5,0,3-1.3,4.4-3.9c1.4-2.6,3.4-7.4,5.8-14.6c-0.6-1.2-1.8-3.9-3.6-8.2c-2.3-5.8-5.4-13.5-9.2-22.9
		c-0.9-2.3-3-7.3-6.2-15.1c-1.1-2.7-2-4.3-2.8-4.9c-0.8-0.5-2.5-0.8-5.3-0.9c-0.9,0-1.4-0.3-1.4-0.8c0-0.5,0.5-0.8,1.4-0.8h2.1
		c1.2,0,2.9,0,5.2,0s4.1,0,5.3,0h14c0.5,0,1,0,1.6,0c0.8,0,1.3,0.3,1.3,0.8c0,0.7-1.2,1-3.5,0.9c-2.3-0.1-3.5,0.4-3.5,1.5
		c0,0.8,0.3,2,0.9,3.6c0.8,2.1,1.3,3.4,1.4,3.8c3.8,10.4,6.8,18.4,9.2,23.8c7.1-18.2,10.7-28.5,10.7-31.1c0-0.8-0.9-1.3-2.6-1.3
		c-3.7,0-5.5-0.3-5.5-1s0.5-1,1.4-1c0.8,0,1.5,0,2.3,0.1c1.5,0.2,3.5,0.2,6,0.2c0.3,0,1.4-0.1,3.4-0.2c2-0.1,3.2-0.2,3.9-0.2h0.7
		C122.3,71.3,122.6,71.6,122.6,72.1z"/>
	<path class="st1" d="M165.5,107.1c0,1.7-1,3.9-3,6.7c-4.3,5.9-9.9,8.9-16.8,8.9c-7.7,0-14.1-2.5-19.1-7.4c-5-4.9-7.5-11.2-7.5-18.9
		c0-7.5,2.4-13.8,7.2-18.8c4.8-5,10.9-7.5,18.1-7.5c4.9,0,9.1,1.1,12.5,3.2c3.8,2.4,6.3,5.8,7.5,10.2c0.3,1.4,0.5,3,0.7,4.9
		c-1.8,0.2-8.9,0.4-21.3,0.5c-1.9,0-4.3,0.1-7.2,0.2c-0.2,2.8-0.3,5.1-0.3,7c0,8.9,1.9,15.3,5.6,19c2.2,2.2,4.9,3.3,8.2,3.3
		c2.7,0,5.3-0.9,7.8-2.8c2.5-1.8,4.4-4.2,5.7-7.1c0.6-1.5,1.1-2.2,1.5-2.2C165.4,106.4,165.5,106.6,165.5,107.1z M151,87
		c0.1-5.9-0.3-9.9-1.3-12.2c-0.9-2.3-2.5-3.4-4.8-3.4c-4.7,0-7.4,5.2-8.1,15.6c1.6,0,5,0,10.1,0C148.5,87,149.9,87,151,87z"/>
	<path class="st1" d="M206.2,105.3c0,5.1-1.6,9.3-4.7,12.5c-3.1,3.2-7.2,4.8-12.2,4.8c-2.4,0-5.4-0.6-8.7-1.8
		c-2.8-1-4.5-1.5-5.4-1.5c-1.5,0-2.4,0.6-2.9,1.7c-0.5,1.1-0.8,1.7-1,1.7c-0.5,0-0.7-0.3-0.7-0.8c0-0.5,0.1-1.2,0.2-2.2
		c0.2-1.5,0.3-4,0.3-7.6c0-0.2,0-0.5,0-1.2c0-0.6,0-1.5,0-2.5v-2c0-0.8,0.2-1.3,0.6-1.3c0.5,0,0.8,0.6,1,1.7
		c0.7,4.1,2.6,7.5,5.8,10.2c3.2,2.7,6.8,4.1,10.8,4.1c2.5,0,4.6-0.8,6.1-2.4c1.6-1.6,2.3-3.6,2.3-6.2c0-2-0.7-3.7-2.2-5.1
		c-1.1-1-4-2.3-8.6-3.8c-5.8-1.9-9.9-4.2-12.5-7c-2.6-2.7-3.9-6.2-3.9-10.4c0-4.5,1.5-8.4,4.6-11.5c3.1-3.1,6.8-4.7,11.3-4.7
		c1.7,0,4.6,0.5,8.7,1.6c0.6,0.2,1.1,0.2,1.4,0.2c1.7,0,3-1,3.8-3.1c0.2-0.4,0.3-0.6,0.6-0.6c0.5,0,0.8,0.5,0.8,1.4l-0.1,2.2
		c-0.1,0.3-0.1,0.8-0.1,1.6c0,3.1,0.2,6.4,0.6,9.7v0.6c0,0.6-0.2,0.9-0.7,0.9c-0.4,0-0.7-0.3-0.9-1c-2.2-7.8-6.7-11.7-13.6-11.7
		c-2.5,0-4.6,0.7-6.3,2.1c-1.7,1.4-2.5,3.1-2.5,5.3c0,2,0.7,3.6,2.1,4.7c1.4,1.2,4.1,2.5,8.1,3.9c7,2.5,11.7,4.9,14.1,7.4
		C205,97.5,206.2,100.9,206.2,105.3z"/>
	<path class="st1" d="M291.3,100.4c0,4.8-1.5,8.9-4.4,12.3c-2.9,3.4-6.9,5.7-12.1,6.9c-4.1,0.9-7.9,1.5-11.5,1.6
		c-3.6,0.2-14.2,0.2-31.8,0.2c-2.5,0-3.9,0-4.4-0.1c-0.5-0.1-0.7-0.3-0.7-0.8c0-0.7,1.2-1,3.7-1c2.5,0,4-0.4,4.7-1.1
		c0.6-0.7,0.9-2.5,0.9-5.4V47.1c0-2.2-1.8-3.4-5.4-3.5c-2.7-0.1-4.1-0.4-4.1-1c0-0.7,0.8-1,2.5-1c1.6,0,3.2,0,4.7,0h27.6
		c17.7,0,26.6,6.1,26.6,18.2c0,10.1-6.6,16.3-19.8,18.7l-0.2,0.5c7.7,1.6,13.1,3.7,16.1,6.1C288.8,89.2,291.3,94.3,291.3,100.4z
		 M272.9,99.9c0-10.8-3.1-17.1-9.2-18.9c-2.4-0.7-5.9-1-10.5-1v6.7c0,1.9-0.1,4.6-0.2,8.2c-0.1,1.8-0.1,5.1-0.1,9.9
		c0,8.3,0.2,12.7,0.7,13.2c0.6,0.8,2.3,1.3,5.2,1.3C268.1,119.2,272.9,112.7,272.9,99.9z M270.7,60.5c0-11.1-3.4-16.7-10.2-16.7
		c-2.4,0-4,0.1-4.8,0.3c-1.7,0.5-2.5,1.7-2.5,3.6v30.4c6.7,0,11.3-1.2,13.8-3.6C269.4,72.2,270.7,67.5,270.7,60.5z"/>
	<path class="st1" d="M329.3,120.5c0,0.5-0.3,0.8-1,0.8h-15.2h-11c-0.5,0-1,0-1.7,0c-0.6,0-1,0-1,0c-0.9,0-1.4-0.2-1.4-0.7
		c0-0.4,0.9-0.6,2.6-0.6c2.6-0.1,4.1-0.4,4.6-0.9s0.7-2,0.7-4.6V81.3c0-2.9-0.2-4.7-0.7-5.3c-0.5-0.6-2-0.9-4.5-0.9
		c-1.6,0-2.6,0-2.8-0.1c-0.3-0.1-0.4-0.3-0.4-0.8c0-0.5,0.6-0.8,1.7-0.8c8.4-0.1,15.6-1.4,21.6-3.9c0.2,0.9,0.3,3.5,0.6,7.6v14.6
		v21.6c0,3.1,0.3,5,0.9,5.5c0.6,0.5,2.5,0.8,5.9,0.8C328.9,119.6,329.3,119.9,329.3,120.5z M321.3,47.5c0,2.1-0.7,4-2.2,5.5
		c-1.5,1.5-3.3,2.3-5.4,2.3c-2.2,0-4-0.7-5.5-2.2c-1.5-1.5-2.2-3.3-2.2-5.5c0-2.1,0.7-3.9,2.2-5.3c1.5-1.4,3.4-2.1,5.8-2.1
		c2.1,0,3.9,0.7,5.3,2.1S321.3,45.4,321.3,47.5z"/>
	<path class="st1" d="M354.4,103.8c0,12-0.1,19.5-0.3,22.6s-0.9,6.2-2.1,9.4c-1.6,4.3-4.4,7.9-8.2,10.9c-3.9,3-7.9,4.4-12,4.4
		c-3.1,0-5.6-0.8-7.6-2.5c-2-1.7-3-3.8-3-6.4c0-4.5,2.3-6.8,7-6.8c4.5,0,6.8,2.2,6.8,6.6c0,1.2-0.3,2.6-0.8,4
		c-0.2,0.6-0.3,1.2-0.3,1.7c0,0.8,0.4,1.2,1.2,1.2c2.2,0,3.5-3.3,3.9-9.8c0-0.2,0-4.4,0-12.9c0-3.2,0-6,0-8.5s0-5.2,0-8.3V87
		c0-6.1-0.1-9.5-0.2-10c-0.1-0.8-0.8-1.3-2.2-1.3h-1.7c-0.5,0-1.8,0-4.1,0c-1.1,0-1.6-0.3-1.6-0.9c0-0.4,1-0.7,3.1-0.9
		c7.1-0.4,13.7-1.6,19.7-3.8c0.6-0.2,1-0.2,1.3-0.2c0.5,0,0.7,0.7,0.8,2.2c0.3,4.5,0.5,9.8,0.5,15.8V103.8z M354.4,47.5
		c0,2.1-0.7,4-2.1,5.4c-1.4,1.5-3.2,2.2-5.3,2.2c-2.1,0-3.9-0.7-5.3-2.1c-1.4-1.4-2.1-3.2-2.1-5.5c0-2.1,0.7-3.9,2.1-5.2
		c1.4-1.3,3.3-2,5.6-2c2.1,0,3.8,0.7,5.1,2C353.7,43.6,354.4,45.4,354.4,47.5z"/>
	<path class="st1" d="M417.2,96.8c0,8.2-3.2,14.8-9.7,19.9c-5.1,4-10.6,6-16.7,6c-7.2,0-13.4-2.6-18.7-7.8
		c-5.3-5.2-7.9-11.3-7.9-18.3c0-7.4,2.6-13.6,7.9-18.8c5.3-5.2,11.6-7.8,19-7.8c7.1,0,13.2,2.6,18.3,7.9
		C414.7,83.1,417.2,89.4,417.2,96.8z M399.9,96.9c0-9.5-0.6-16-1.9-19.6c-1.4-3.9-3.8-5.9-7-5.9c-3,0-5.3,2.1-7,6.2
		c-1.7,4.1-2.5,9.8-2.5,17c0,10,1,17.2,3,21.4c1.6,3.4,3.8,5.1,6.7,5.1c3.6,0,5.9-2.1,7.1-6.4C399.3,110.5,399.9,104.6,399.9,96.9z"
		/>
	<path class="st1" d="M483.9,117.5c0,0.6-0.7,1-2,1c-7,0.2-11.8,0.6-14.5,1.1c-2.7,0.5-5,1.4-6.9,2.7c-0.5,0.3-0.9,0.5-1.3,0.5
		c-0.3,0-0.5-0.3-0.5-0.9c0-1.1,0-1.9,0-2.6c0-0.7,0-1.4,0-2.4c0-0.7,0-1.3-0.1-1.8c-4.8,5.1-10,7.7-15.6,7.7c-5,0-9-1.6-11.9-4.8
		c-1.8-2-2.7-5.7-2.7-11.1v-8.2c0-0.9,0-3.2,0-6.8c0-3.6,0-8.6,0-15c0-1.7-0.2-2.7-0.7-3.1c-0.5-0.4-1.9-0.6-4.1-0.7
		c-2-0.1-2.9-0.4-2.9-0.9c0-0.6,0.5-0.9,1.6-0.9h1.3c1.2,0,2.9,0.1,5.2,0.2c2.3,0.1,3.9,0.2,4.8,0.2c0.2,0,0.9-0.1,2.4-0.2
		c1.4-0.1,3.5-0.2,6.3-0.2h2.2v12.5c0,5.9-0.1,10.3-0.2,13.1c-0.2,2.8-0.2,4-0.2,3.6c0,8.1,0.5,13.1,1.6,15.1c1,2,2.7,3,4.9,3
		c2.5,0,4.9-1.4,7.1-4.3c0.7-0.8,1.1-1.7,1.2-2.6s0.2-3.1,0.2-6.5V85.3c0-5.6-0.1-9-0.2-10.1c-0.2-1.5-1.1-2.2-2.8-2.2h-3.2
		c-1.1,0-1.6-0.3-1.6-0.9c0-0.5,2.1-0.7,6.2-0.7c3.6,0,9.3,0,17.1-0.1c0,2.9,0,7.6,0,14v23.4c0,3.6,0.1,5.7,0.2,6.4
		c0.2,0.7,0.7,1.1,1.7,1.3c0.7,0.2,2.8,0.2,6.2,0.2C483.4,116.5,483.9,116.8,483.9,117.5z"/>
	<path class="st1" d="M537.9,120.3c0,0.5-0.5,0.8-1.4,0.8h-2.6h-4.1h-8.3H507c-1.2,0-1.7-0.3-1.7-0.9c0-0.5,0.6-0.8,1.8-0.8h1.8
		c2.5,0,3.7-0.4,3.7-1.1c0-1.5-3.1-7.5-9.2-17.8c-1.6,2.1-4.5,6.2-8.6,12.1c-0.8,1.4-1.7,2.7-2.8,3.9c-0.6,0.8-0.9,1.5-0.9,2
		c0,0.7,1.2,1,3.7,1c0.7,0,1.3,0,1.8,0h1c1.2,0,1.7,0.3,1.7,0.8c0,0.5-0.5,0.8-1.4,0.8l-13.5-0.1c-2.2,0-3.5,0-3.9-0.1
		c-0.3-0.1-0.5-0.3-0.5-0.7c0-0.6,0.6-0.9,1.7-0.8c2.5,0.1,4.3-0.3,5.5-1.3c1.2-0.9,3.3-3.5,6.3-7.7c1.6-2.2,2.8-3.9,3.7-5
		c2.2-2.9,3.9-5.3,5.1-7.1c-0.5-0.6-1.7-2.7-3.6-6.2c-2-3.5-3.5-6.3-4.8-8.5l-3-5.2c-1.4-2.4-2.5-3.9-3.2-4.5
		c-0.8-0.6-2.1-0.9-3.9-1c-1.8,0-2.8-0.3-2.8-0.9c0-0.6,0.5-0.9,1.6-0.9c0.8,0,1.6,0,2.4,0h11.3h13.8c1,0,1.5,0.3,1.5,0.8
		c0,0.5-1,0.9-2.9,0.9c-2.2,0.1-3.3,0.5-3.3,1.4c0,1.6,2.6,6.5,7.8,14.7c6.5-8.7,9.8-13.7,9.8-15.1c0-0.8-1.2-1.2-3.5-1.2H519
		c-0.5,0-1.1,0-1.7,0c-0.7,0-1-0.3-1-0.9c0-0.5,0.6-0.8,1.7-0.8s2.5,0,4.1,0s2.6,0,3,0c3.5,0,5.8,0,6.7,0h1.2c0.8,0,1.3,0.3,1.3,0.8
		c0,0.6-0.6,0.9-1.7,0.9c-0.2,0-0.5,0-1.2,0h-1c-1.7,0-3,0.5-3.9,1.4c-0.9,0.9-3.3,4.2-7,9.8c-0.2,0.2-1.8,2.6-4.9,7.1l3.6,6.2
		c1.5,2.7,3.5,6.1,5.8,10.2c2.8,5.3,4.8,8.6,6.3,10c1.4,1.3,3.5,2,6.3,1.9C537.4,119.5,537.9,119.8,537.9,120.3z"/>
</g>
</svg>
