<?xml version="1.0" encoding="utf-8"?>
<!-- Generator: Adobe Illustrator 24.1.0, SVG Export Plug-In . SVG Version: 6.00 Build 0)  -->
<svg version="1.1" id="Layer_1" xmlns="http://www.w3.org/2000/svg" xmlns:xlink="http://www.w3.org/1999/xlink" x="0px" y="0px"
	 viewBox="0 0 57.6 19.4" style="enable-background:new 0 0 57.6 19.4;" xml:space="preserve">
<style type="text/css">
	.st0{enable-background:new    ;}
	.st1{fill:#FFFFFF;}
</style>
<g class="st0">
	<path class="st1" d="M4.7,12.8c0,0.1-0.1,0.1-0.2,0.1c-0.1,0-0.1,0-0.2,0c-0.5,0-0.9,0-1.2,0c-0.4,0-0.9,0-1.6,0
		c-0.2,0-0.4,0-0.5,0c-0.1,0-0.2,0-0.2-0.1c0,0,0-0.1,0.1-0.1s0.2,0,0.5,0c0.2,0,0.4-0.1,0.4-0.2c0-0.1,0.1-0.4,0.1-1V5.7
		c0-0.2,0-0.3,0-0.4c0-0.1,0-0.2,0-0.2c0-0.2-0.2-0.3-0.6-0.3c-0.2,0-0.3,0-0.3-0.1c0-0.1,0-0.1,0-0.1c0,0,0.1,0,0.3,0
		c-0.1,0,0.1,0,0.4,0c0.4,0,0.7,0,0.9,0h0.6c0.1,0,0.3,0,0.5,0s0.4,0,0.5,0h0.1c0.1,0,0.2,0,0.2,0.1c0,0,0,0.1-0.1,0.1
		c0,0-0.2,0-0.4,0c-0.2,0-0.4,0.1-0.5,0.2l0,0.2v6.8c0,0.3,0,0.5,0.1,0.6c0.1,0.1,0.3,0.1,0.8,0.1C4.6,12.7,4.7,12.7,4.7,12.8z"/>
	<path class="st1" d="M8.2,12.8c0,0.1-0.2,0.1-0.5,0.1c-0.1,0-0.3,0-0.7,0c-0.2,0-0.4,0-0.6,0c-0.2,0-0.5,0-1,0l-0.4,0
		c-0.2,0-0.3,0-0.3-0.1c0-0.1,0.1-0.1,0.3-0.1c0.3,0,0.4,0,0.5-0.1c0-0.1,0.1-0.3,0.1-0.7V5.6c0-0.3,0-0.4-0.1-0.5S5.4,5,5.1,5
		C4.9,5,4.8,5,4.8,4.9c0-0.1,0.1-0.1,0.3-0.1c0.9,0,1.6-0.2,2.2-0.4c0,0.2,0,1.6,0,4.2v3c0,0.5,0,0.9,0,1c0,0.1,0.1,0.1,0.3,0.1H8
		C8.1,12.7,8.2,12.7,8.2,12.8z"/>
	<path class="st1" d="M13.5,7.7c0,0.1,0,0.1,0,0.1c0,0-0.1,0-0.3,0c-0.2,0-0.3,0-0.4,0L12.7,8l-0.1,0.4c-0.1,0.2-0.2,0.6-0.4,1.2
		c0,0-0.2,0.5-0.5,1.5c-0.8,2.2-1.3,3.6-1.5,4C9.8,15.7,9.4,16,8.9,16c-0.3,0-0.5-0.1-0.6-0.2c-0.2-0.2-0.2-0.4-0.2-0.6
		c0-0.4,0.2-0.6,0.6-0.6c0.1,0,0.3,0,0.3,0.1c0,0,0.1,0.2,0.2,0.3c0.1,0.1,0.1,0.1,0.2,0.1c0.2,0,0.3-0.1,0.5-0.4
		c0.1-0.3,0.4-0.8,0.6-1.5c-0.1-0.1-0.2-0.4-0.4-0.9C10,11.8,9.7,11,9.3,10C9.2,9.7,8.9,9.2,8.6,8.4C8.5,8.1,8.4,8,8.3,7.9
		C8.2,7.9,8.1,7.8,7.8,7.8c-0.1,0-0.1,0-0.1-0.1c0-0.1,0-0.1,0.1-0.1H8c0.1,0,0.3,0,0.5,0c0.2,0,0.4,0,0.6,0h1.5c0,0,0.1,0,0.2,0
		c0.1,0,0.1,0,0.1,0.1c0,0.1-0.1,0.1-0.4,0.1c-0.2,0-0.4,0-0.4,0.2c0,0.1,0,0.2,0.1,0.4c0.1,0.2,0.1,0.4,0.1,0.4
		c0.4,1.1,0.7,1.9,1,2.5c0.7-1.9,1.1-3,1.1-3.2c0-0.1-0.1-0.1-0.3-0.1c-0.4,0-0.6,0-0.6-0.1s0-0.1,0.1-0.1c0.1,0,0.2,0,0.2,0
		c0.2,0,0.4,0,0.6,0c0,0,0.1,0,0.4,0c0.2,0,0.3,0,0.4,0h0.1C13.5,7.6,13.5,7.7,13.5,7.7z"/>
	<path class="st1" d="M18,11.4c0,0.2-0.1,0.4-0.3,0.7c-0.4,0.6-1,0.9-1.8,0.9c-0.8,0-1.5-0.3-2-0.8c-0.5-0.5-0.8-1.2-0.8-2
		c0-0.8,0.3-1.4,0.8-2c0.5-0.5,1.1-0.8,1.9-0.8c0.5,0,0.9,0.1,1.3,0.3c0.4,0.2,0.7,0.6,0.8,1.1c0,0.1,0.1,0.3,0.1,0.5
		c-0.2,0-0.9,0-2.2,0c-0.2,0-0.5,0-0.8,0c0,0.3,0,0.5,0,0.7c0,0.9,0.2,1.6,0.6,2c0.2,0.2,0.5,0.3,0.9,0.3c0.3,0,0.5-0.1,0.8-0.3
		c0.3-0.2,0.5-0.4,0.6-0.7C17.9,11.4,17.9,11.3,18,11.4C18,11.3,18,11.3,18,11.4z M16.5,9.3c0-0.6,0-1-0.1-1.3s-0.3-0.4-0.5-0.4
		c-0.5,0-0.8,0.5-0.8,1.6c0.2,0,0.5,0,1.1,0C16.2,9.3,16.4,9.3,16.5,9.3z"/>
	<path class="st1" d="M22.3,11.2c0,0.5-0.2,1-0.5,1.3S21,13,20.5,13c-0.3,0-0.6-0.1-0.9-0.2c-0.3-0.1-0.5-0.2-0.6-0.2
		c-0.2,0-0.3,0.1-0.3,0.2c0,0.1-0.1,0.2-0.1,0.2c0,0-0.1,0-0.1-0.1c0,0,0-0.1,0-0.2c0-0.2,0-0.4,0-0.8c0,0,0-0.1,0-0.1s0-0.2,0-0.3
		v-0.2c0-0.1,0-0.1,0.1-0.1c0,0,0.1,0.1,0.1,0.2c0.1,0.4,0.3,0.8,0.6,1.1c0.3,0.3,0.7,0.4,1.1,0.4c0.3,0,0.5-0.1,0.6-0.2
		c0.2-0.2,0.2-0.4,0.2-0.6c0-0.2-0.1-0.4-0.2-0.5c-0.1-0.1-0.4-0.2-0.9-0.4c-0.6-0.2-1-0.4-1.3-0.7c-0.3-0.3-0.4-0.6-0.4-1.1
		c0-0.5,0.2-0.9,0.5-1.2c0.3-0.3,0.7-0.5,1.2-0.5c0.2,0,0.5,0.1,0.9,0.2c0.1,0,0.1,0,0.1,0c0.2,0,0.3-0.1,0.4-0.3c0,0,0-0.1,0.1-0.1
		c0.1,0,0.1,0,0.1,0.1l0,0.2c0,0,0,0.1,0,0.2c0,0.3,0,0.7,0.1,1v0.1c0,0.1,0,0.1-0.1,0.1c0,0-0.1,0-0.1-0.1
		c-0.2-0.8-0.7-1.2-1.4-1.2c-0.3,0-0.5,0.1-0.7,0.2c-0.2,0.1-0.3,0.3-0.3,0.6c0,0.2,0.1,0.4,0.2,0.5c0.1,0.1,0.4,0.3,0.8,0.4
		c0.7,0.3,1.2,0.5,1.5,0.8C22.1,10.4,22.3,10.7,22.3,11.2z"/>
	<path class="st1" d="M31.1,10.7c0,0.5-0.2,0.9-0.5,1.3c-0.3,0.4-0.7,0.6-1.3,0.7c-0.4,0.1-0.8,0.2-1.2,0.2c-0.4,0-1.5,0-3.3,0
		c-0.3,0-0.4,0-0.5,0c0,0-0.1,0-0.1-0.1c0-0.1,0.1-0.1,0.4-0.1c0.3,0,0.4,0,0.5-0.1s0.1-0.3,0.1-0.6V5.1c0-0.2-0.2-0.4-0.6-0.4
		c-0.3,0-0.4,0-0.4-0.1c0-0.1,0.1-0.1,0.3-0.1c0.2,0,0.3,0,0.5,0H28c1.8,0,2.8,0.6,2.8,1.9c0,1.1-0.7,1.7-2.1,1.9l0,0
		c0.8,0.2,1.4,0.4,1.7,0.6C30.9,9.5,31.1,10,31.1,10.7z M29.2,10.6c0-1.1-0.3-1.8-1-2c-0.3-0.1-0.6-0.1-1.1-0.1v0.7
		c0,0.2,0,0.5,0,0.9c0,0.2,0,0.5,0,1c0,0.9,0,1.3,0.1,1.4c0.1,0.1,0.2,0.1,0.5,0.1C28.7,12.6,29.2,12,29.2,10.6z M29,6.5
		c0-1.2-0.4-1.7-1.1-1.7c-0.3,0-0.4,0-0.5,0c-0.2,0.1-0.3,0.2-0.3,0.4v3.2c0.7,0,1.2-0.1,1.4-0.4C28.8,7.7,29,7.2,29,6.5z"/>
	<path class="st1" d="M35.1,12.8c0,0.1,0,0.1-0.1,0.1h-1.6h-1.1c0,0-0.1,0-0.2,0c-0.1,0-0.1,0-0.1,0c-0.1,0-0.1,0-0.1-0.1
		c0,0,0.1-0.1,0.3-0.1c0.3,0,0.4,0,0.5-0.1c0-0.1,0.1-0.2,0.1-0.5V8.7c0-0.3,0-0.5-0.1-0.5C32.5,8.1,32.4,8,32.1,8
		c-0.2,0-0.3,0-0.3,0c0,0,0,0,0-0.1c0-0.1,0.1-0.1,0.2-0.1c0.9,0,1.6-0.1,2.3-0.4c0,0.1,0,0.4,0.1,0.8v1.5V12c0,0.3,0,0.5,0.1,0.6
		c0.1,0.1,0.3,0.1,0.6,0.1C35,12.7,35.1,12.7,35.1,12.8z M34.3,5.2c0,0.2-0.1,0.4-0.2,0.6C33.9,5.9,33.7,6,33.5,6
		c-0.2,0-0.4-0.1-0.6-0.2c-0.2-0.2-0.2-0.3-0.2-0.6c0-0.2,0.1-0.4,0.2-0.6c0.2-0.1,0.4-0.2,0.6-0.2c0.2,0,0.4,0.1,0.6,0.2
		C34.2,4.8,34.3,4.9,34.3,5.2z"/>
	<path class="st1" d="M37.7,11c0,1.2,0,2,0,2.4s-0.1,0.7-0.2,1c-0.2,0.4-0.5,0.8-0.9,1.1c-0.4,0.3-0.8,0.5-1.3,0.5
		c-0.3,0-0.6-0.1-0.8-0.3c-0.2-0.2-0.3-0.4-0.3-0.7c0-0.5,0.2-0.7,0.7-0.7c0.5,0,0.7,0.2,0.7,0.7c0,0.1,0,0.3-0.1,0.4
		c0,0.1,0,0.1,0,0.2c0,0.1,0,0.1,0.1,0.1c0.2,0,0.4-0.3,0.4-1c0,0,0-0.5,0-1.3c0-0.3,0-0.6,0-0.9s0-0.5,0-0.9V9.3c0-0.6,0-1,0-1
		c0-0.1-0.1-0.1-0.2-0.1h-0.2c0,0-0.2,0-0.4,0c-0.1,0-0.2,0-0.2-0.1c0,0,0.1-0.1,0.3-0.1c0.7,0,1.4-0.2,2.1-0.4c0.1,0,0.1,0,0.1,0
		c0,0,0.1,0.1,0.1,0.2c0,0.5,0,1,0,1.6V11z M37.7,5.2c0,0.2-0.1,0.4-0.2,0.6C37.3,5.9,37.2,6,36.9,6c-0.2,0-0.4-0.1-0.6-0.2
		c-0.1-0.1-0.2-0.3-0.2-0.6c0-0.2,0.1-0.4,0.2-0.5c0.1-0.1,0.3-0.2,0.6-0.2c0.2,0,0.4,0.1,0.5,0.2C37.6,4.8,37.7,4.9,37.7,5.2z"/>
	<path class="st1" d="M44.3,10.3c0,0.9-0.3,1.5-1,2.1c-0.5,0.4-1.1,0.6-1.7,0.6c-0.8,0-1.4-0.3-2-0.8c-0.5-0.5-0.8-1.2-0.8-1.9
		c0-0.8,0.3-1.4,0.8-2c0.5-0.5,1.2-0.8,2-0.8c0.7,0,1.4,0.3,1.9,0.8C44,8.9,44.3,9.5,44.3,10.3z M42.4,10.3c0-1-0.1-1.7-0.2-2
		c-0.2-0.4-0.4-0.6-0.7-0.6c-0.3,0-0.6,0.2-0.7,0.6c-0.2,0.4-0.3,1-0.3,1.8c0,1,0.1,1.8,0.3,2.2c0.2,0.4,0.4,0.5,0.7,0.5
		c0.4,0,0.6-0.2,0.7-0.7C42.4,11.7,42.4,11.1,42.4,10.3z"/>
	<path class="st1" d="M51.2,12.5c0,0.1-0.1,0.1-0.2,0.1c-0.7,0-1.2,0.1-1.5,0.1S49,12.8,48.8,13c0,0-0.1,0-0.1,0c0,0,0,0,0-0.1
		c0-0.1,0-0.2,0-0.3c0-0.1,0-0.1,0-0.2c0-0.1,0-0.1,0-0.2c-0.5,0.5-1,0.8-1.6,0.8c-0.5,0-0.9-0.2-1.2-0.5c-0.2-0.2-0.3-0.6-0.3-1.2
		v-0.9c0-0.1,0-0.3,0-0.7s0-0.9,0-1.6c0-0.2,0-0.3-0.1-0.3c-0.1,0-0.2-0.1-0.4-0.1c-0.2,0-0.3,0-0.3-0.1c0-0.1,0.1-0.1,0.2-0.1h0.1
		c0.1,0,0.3,0,0.5,0c0.2,0,0.4,0,0.5,0c0,0,0.1,0,0.2,0c0.1,0,0.4,0,0.7,0h0.2v1.3c0,0.6,0,1.1,0,1.4c0,0.3,0,0.4,0,0.4
		c0,0.8,0.1,1.4,0.2,1.6c0.1,0.2,0.3,0.3,0.5,0.3c0.3,0,0.5-0.1,0.7-0.4c0.1-0.1,0.1-0.2,0.1-0.3c0-0.1,0-0.3,0-0.7V9.1
		c0-0.6,0-0.9,0-1.1c0-0.2-0.1-0.2-0.3-0.2H48c-0.1,0-0.2,0-0.2-0.1c0,0,0.2-0.1,0.6-0.1c0.4,0,1,0,1.8,0c0,0.3,0,0.8,0,1.5v2.4
		c0,0.4,0,0.6,0,0.7c0,0.1,0.1,0.1,0.2,0.1c0.1,0,0.3,0,0.6,0C51.2,12.4,51.2,12.4,51.2,12.5z"/>
	<path class="st1" d="M56.8,12.8c0,0.1,0,0.1-0.1,0.1h-0.3H56h-0.9h-1.5c-0.1,0-0.2,0-0.2-0.1c0-0.1,0.1-0.1,0.2-0.1h0.2
		c0.3,0,0.4,0,0.4-0.1c0-0.2-0.3-0.8-1-1.9c-0.2,0.2-0.5,0.6-0.9,1.3c-0.1,0.1-0.2,0.3-0.3,0.4C52,12.5,52,12.5,52,12.6
		c0,0.1,0.1,0.1,0.4,0.1c0.1,0,0.1,0,0.2,0h0.1c0.1,0,0.2,0,0.2,0.1s0,0.1-0.1,0.1l-1.4,0c-0.2,0-0.4,0-0.4,0s-0.1,0-0.1-0.1
		c0-0.1,0.1-0.1,0.2-0.1c0.3,0,0.4,0,0.6-0.1c0.1-0.1,0.3-0.4,0.7-0.8c0.2-0.2,0.3-0.4,0.4-0.5c0.2-0.3,0.4-0.6,0.5-0.7
		c0-0.1-0.2-0.3-0.4-0.6c-0.2-0.4-0.4-0.7-0.5-0.9L52,8.4c-0.1-0.2-0.3-0.4-0.3-0.5c-0.1-0.1-0.2-0.1-0.4-0.1s-0.3,0-0.3-0.1
		c0-0.1,0.1-0.1,0.2-0.1c0.1,0,0.2,0,0.3,0h1.2H54c0.1,0,0.2,0,0.2,0.1S54,7.8,53.8,7.8c-0.2,0-0.3,0.1-0.3,0.1
		c0,0.2,0.3,0.7,0.8,1.5c0.7-0.9,1-1.4,1-1.6c0-0.1-0.1-0.1-0.4-0.1h-0.1c-0.1,0-0.1,0-0.2,0c-0.1,0-0.1,0-0.1-0.1
		c0-0.1,0.1-0.1,0.2-0.1c0.1,0,0.3,0,0.4,0s0.3,0,0.3,0c0.4,0,0.6,0,0.7,0h0.1c0.1,0,0.1,0,0.1,0.1c0,0.1-0.1,0.1-0.2,0.1
		c0,0-0.1,0-0.1,0h-0.1c-0.2,0-0.3,0-0.4,0.1c-0.1,0.1-0.3,0.4-0.7,1c0,0-0.2,0.3-0.5,0.7l0.4,0.6c0.2,0.3,0.4,0.6,0.6,1.1
		c0.3,0.6,0.5,0.9,0.7,1c0.1,0.1,0.4,0.2,0.7,0.2C56.8,12.7,56.8,12.7,56.8,12.8z"/>
</g>
</svg>
